<?xml version="1.0" encoding="UTF-8"?>
<svg version="1.1" xmlns="http://www.w3.org/2000/svg" width="1024" height="1024">
<path d="M0 0 C49.11035003 3.96432946 97.00027168 19.89480785 135 52 C135.54011719 52.45133301 136.08023438 52.90266602 136.63671875 53.36767578 C152.86284043 66.93869532 152.86284043 66.93869532 158 73 C158 73.66 158 74.32 158 75 C158.66 75 159.32 75 160 75 C162.7660502 77.97469623 165.2228234 81.20441856 167.73242188 84.39697266 C168.92573416 85.9060806 170.14185575 87.39707185 171.359375 88.88671875 C197 120.9375 197 120.9375 197 131 C197.66 131.33 198.32 131.66 199 132 C200.03393555 133.92333984 200.03393555 133.92333984 201.13671875 136.4609375 C201.54559326 137.39711914 201.95446777 138.33330078 202.37573242 139.29785156 C202.80861572 140.31331055 203.24149902 141.32876953 203.6875 142.375 C204.13520752 143.42139648 204.58291504 144.46779297 205.04418945 145.54589844 C217.601695 175.15811263 225.32915197 205.59120557 228.40551758 237.64672852 C228.72545032 241.44673756 228.72545032 241.44673756 230 245 C230.13462646 243.93978638 230.13462646 243.93978638 230.27197266 242.8581543 C238.01134525 182.97198789 257.97407406 128.88490552 306.97216797 90.453125 C320.05197814 80.6582563 334.08446216 72.14879567 348.375 64.25 C348.98746582 63.90227539 349.59993164 63.55455078 350.23095703 63.19628906 C354.49425263 60.90279727 354.49425263 60.90279727 357.18994141 61.42089844 C357.78726074 61.61200195 358.38458008 61.80310547 359 62 C358.9685791 63.96791504 358.9685791 63.96791504 358.93652344 65.97558594 C358.8641203 70.84331344 358.81819887 75.71099335 358.78027344 80.57910156 C358.76015874 82.68595382 358.73286333 84.79275025 358.69824219 86.89941406 C358.64971832 89.92787447 358.62702984 92.95559678 358.609375 95.984375 C358.58872986 96.92617615 358.56808472 97.86797729 358.54681396 98.83831787 C358.50913567 104.00847205 358.50913567 104.00847205 360.71191406 108.56347656 C365.38360929 111.49649563 370.63783305 111.16356054 376.00317383 111.20532227 C376.79394318 111.21522186 377.58471252 111.22512146 378.39944458 111.23532104 C381.00194346 111.26679926 383.60446057 111.29163914 386.20703125 111.31640625 C388.0159298 111.3369876 389.82482366 111.35798438 391.63371277 111.37937927 C396.38638509 111.43447797 401.13909993 111.4839409 405.8918457 111.53222656 C410.74499276 111.58253085 415.59807834 111.63817025 420.45117188 111.69335938 C429.96739535 111.80079163 439.48367229 111.90226957 449 112 C448.86597591 115.59793298 448.72277399 119.19544851 448.578125 122.79296875 C448.52229248 124.29627747 448.52229248 124.29627747 448.46533203 125.82995605 C446.77347145 167.05661757 436.41993401 208.57157798 417 245 C416.65356445 245.6595166 416.30712891 246.3190332 415.95019531 246.99853516 C407.78922365 262.45062195 397.48015438 275.88226045 386 289 C385.20464844 289.91910156 384.40929687 290.83820313 383.58984375 291.78515625 C379.03161025 296.96887634 374.29391544 301.58238114 369 306 C367.98578624 306.87492114 366.97286472 307.75134152 365.9609375 308.62890625 C350.43790947 322.03473886 333.45067395 332.15788885 315 341 C314.05769531 341.46148438 313.11539062 341.92296875 312.14453125 342.3984375 C298.32302001 348.96417809 283.81213018 352.9973001 269.01953125 356.703125 C268.14377441 356.93765381 267.26801758 357.17218262 266.36572266 357.41381836 C264 358 264 358 260.51171875 358.45703125 C257.3436492 360.4032015 257.27889098 361.47117573 256.3125 364.99609375 C255.85105865 367.13821154 255.41503409 369.28590909 255 371.4375 C254.51351198 373.70695841 254.02124946 375.9751861 253.5234375 378.2421875 C253.1536377 379.9432666 253.1536377 379.9432666 252.77636719 381.67871094 C251.63650805 386.55501397 250.17801996 391.30406534 248.625 396.0625 C248.36203125 396.87066162 248.0990625 397.67882324 247.828125 398.51147461 C247.22616839 400.34343731 246.61436319 402.17216057 246 404 C245.34 403.67 244.68 403.34 244 403 C243.61098108 400.42197782 243.34040372 397.90662688 243.125 395.3125 C239.1630094 355.45223061 226.56909194 315.40807427 201 284 C200.33097656 283.12988281 199.66195312 282.25976562 198.97265625 281.36328125 C184.75708024 263.22981836 167.317741 249.29261013 148 237 C147.05125 236.38511719 146.1025 235.77023437 145.125 235.13671875 C123.98666699 222.07539082 99.07342463 214.60931877 74.8125 210.125 C73.67458008 209.91431885 72.53666016 209.7036377 71.36425781 209.48657227 C66.70691919 208.66732709 62.15930596 207.91221787 57.42578125 207.81640625 C51.54029813 207.61679583 47.74527772 207.08979559 43.56640625 202.81640625 C40.61557572 199.42730427 38.00763036 195.83481543 35.46826172 192.13085938 C34.120998 190.17560202 32.72376728 188.27916546 31.28515625 186.390625 C25.00724156 178.06533119 19.90041865 169.18736105 15 160 C14.46761719 159.02933594 13.93523437 158.05867187 13.38671875 157.05859375 C1.77725797 135.06007373 -8.00611231 107.15280787 -7 82 C-7.66 81.67 -8.32 81.34 -9 81 C-9.40287683 54.17150248 -9.43587279 25.55548881 0 0 Z " fill="#F7451F" transform="translate(265,325)"/>
<path d="M0 0 C13.53230406 5.94928174 25.06230509 21.65658823 34 33 C34.82886719 34.01191406 35.65773438 35.02382813 36.51171875 36.06640625 C63.73484539 69.50865264 84.61151025 110.06089354 91 153 C90.04222656 153.49886719 89.08445312 153.99773437 88.09765625 154.51171875 C72.1543039 163.0277922 57.65284472 174.00351512 45.0625 187 C43 189 43 189 40 190 C39.30712265 191.31990272 38.64461166 192.65586532 38 194 C36.74388744 195.42791271 35.44656807 196.8199433 34.125 198.1875 C16.25132086 217.72785661 -1.17557424 245.69760188 -6 272 C-6.66 272 -7.32 272 -8 272 C-8.33773437 270.92878906 -8.67546875 269.85757812 -9.0234375 268.75390625 C-9.47356249 267.35664325 -9.92410496 265.95951469 -10.375 264.5625 C-10.59671875 263.85544922 -10.8184375 263.14839844 -11.046875 262.41992188 C-11.64102606 260.5937811 -12.31549619 258.79422968 -13 257 C-13.66 256.67 -14.32 256.34 -15 256 C-15.10441406 255.06800781 -15.20882812 254.13601563 -15.31640625 253.17578125 C-15.99340588 247.45258651 -18.59835805 242.39677898 -20.9375 237.1875 C-21.42968018 236.08253174 -21.92186035 234.97756348 -22.42895508 233.83911133 C-35.82227421 204.22277773 -56.53898269 169.39096771 -84.57421875 151.28125 C-86.45476727 149.59133243 -86.60705405 148.48418516 -87 146 C-86.67382812 143.75195312 -86.67382812 143.75195312 -86.03125 141.28125 C-85.79390137 140.35981201 -85.55655273 139.43837402 -85.31201172 138.48901367 C-85.04404785 137.50263916 -84.77608398 136.51626465 -84.5 135.5 C-84.2230127 134.47044189 -83.94602539 133.44088379 -83.66064453 132.38012695 C-73.45032214 95.20826137 -55.89017894 61.43040702 -31 32 C-30.0753579 30.88815632 -29.15088704 29.7761702 -28.2265625 28.6640625 C-23.08410248 22.52367157 -17.78570748 16.60636412 -12.125 10.9375 C-11.60196289 10.41365723 -11.07892578 9.88981445 -10.54003906 9.35009766 C-7.17455002 6.03287089 -3.66584713 2.98192042 0 0 Z " fill="#F7451E" transform="translate(506,222)"/>
<path d="M0 0 C0.495 0.99 0.495 0.99 1 2 C1.91394531 1.95359375 2.82789063 1.9071875 3.76953125 1.859375 C38.45375848 0.69239574 73.71281191 11.62636702 104 28 C104.5986084 28.31936523 105.1972168 28.63873047 105.81396484 28.96777344 C128.54606625 41.17334438 150.77768433 58.88289929 167 79 C168.28003906 80.50626953 168.28003906 80.50626953 169.5859375 82.04296875 C182.27159431 97.17807884 192.80622873 114.04066705 201 132 C201.29422852 132.6300293 201.58845703 133.26005859 201.89160156 133.90917969 C213.33421988 158.47532327 220.54342827 183.70782463 220 211 C218 210 218 210 217.17578125 207.8828125 C216.89089844 206.97273437 216.60601562 206.06265625 216.3125 205.125 C210.60084818 188.8929895 198.2488329 175.89026615 183.1875 167.8125 C172.74367095 163.12182984 162.36509448 160.19097942 151.09991455 158.34579468 C147.46486658 157.7472083 143.83861144 157.09853637 140.2109375 156.45703125 C139.49618256 156.33157425 138.78142761 156.20611725 138.04501343 156.07685852 C100.495011 149.46453413 64.18916706 136.26081757 33 114 C32.10015381 113.36288086 32.10015381 113.36288086 31.18212891 112.71289062 C21.31778173 105.68568927 12.3162532 98.03813054 3.63964844 89.59277344 C2.18138162 88.1761962 0.70518344 86.77813085 -0.7734375 85.3828125 C-7.09881634 79.29688018 -12.47513656 72.64116766 -17.75097656 65.65039062 C-18.84914547 64.19933085 -19.96609763 62.76252664 -21.0859375 61.328125 C-34.03246217 44.31269258 -43.89764121 24.47501964 -50 4 C-36.17077553 1.32253737 -22.04105885 1.27837689 -8 1 C-6.38448242 0.96447021 -6.38448242 0.96447021 -4.73632812 0.92822266 C-2 1 -2 1 0 2 C0 1.34 0 0.68 0 0 Z " fill="#F6451F" transform="translate(280,536)"/>
<path d="M0 0 C1.01295387 -0.00788544 1.01295387 -0.00788544 2.04637146 -0.01593018 C4.27342016 -0.02910817 6.49975096 -0.02039951 8.72680664 -0.01025391 C10.27853024 -0.01227553 11.83025291 -0.0151877 13.38197327 -0.01895142 C16.63267063 -0.02337196 19.8831205 -0.01695345 23.13378906 -0.00292969 C27.29454512 0.014148 31.45472001 0.00432866 35.61545467 -0.01364708 C38.81971082 -0.0245045 42.02382994 -0.0210294 45.22809029 -0.0132637 C46.76184725 -0.01126636 48.29561676 -0.0137046 49.82935905 -0.02070236 C51.97641659 -0.02834779 54.12254282 -0.01667018 56.26953125 0 C57.48990585 0.00238678 58.71028046 0.00477356 59.96763611 0.00723267 C63.60330365 0.43578624 65.37528496 1.06966738 68.19946289 3.38818359 C70.95686549 7.66284701 71.57711049 10.9957077 71.58764648 16.03271484 C71.59710297 17.33426514 71.60655945 18.63581543 71.61630249 19.97680664 C71.61093231 21.38476875 71.60477924 22.79272805 71.59790039 24.20068359 C71.59992362 25.65747218 71.60283714 27.11425978 71.6065979 28.57104492 C71.61100956 31.61728604 71.60462787 34.66326242 71.59057617 37.70947266 C71.57348465 41.60328752 71.5833321 45.49648192 71.60129356 49.39027405 C71.61216295 52.39640938 71.60867069 55.40239896 71.60091019 58.40853882 C71.59891688 59.84378128 71.60133676 61.2790372 71.60834885 62.71426392 C71.61601451 64.72405729 71.60224846 66.7338974 71.58764648 68.74365234 C71.5852597 69.88471436 71.58287292 71.02577637 71.58041382 72.20141602 C71.14257735 75.86404805 70.12339506 78.25374963 68.19946289 81.38818359 C64.51719725 83.84302735 62.70601764 83.64142646 58.31298828 83.64697266 C57.61671829 83.65047729 56.9204483 83.65398193 56.20307922 83.65759277 C53.90099116 83.66639653 51.59921035 83.66056521 49.29711914 83.65380859 C47.69673097 83.65515579 46.09634319 83.65709678 44.49595642 83.65960693 C41.14098211 83.66255648 37.78611428 83.65826659 34.43115234 83.64892578 C30.13250008 83.63754051 25.83409781 83.64408584 21.53545475 83.65607071 C18.23003765 83.66330175 14.92467968 83.6609955 11.61926079 83.65581512 C10.03443815 83.65448159 8.44961013 83.65611597 6.86479378 83.66077423 C4.64816215 83.66585892 2.43193368 83.6581018 0.21533203 83.64697266 C-1.04580917 83.64538147 -2.30695038 83.64379028 -3.60630798 83.64215088 C-6.6570466 83.39959226 -8.31318431 83.11571759 -10.80053711 81.38818359 C-15.72309059 74.00435337 -13.9714921 61.8496314 -14.00366211 53.21240234 C-14.00936218 52.00300491 -14.01506226 50.79360748 -14.02093506 49.54756165 C-14.03031332 47.01226662 -14.03689017 44.47695979 -14.04077148 41.94165039 C-14.0505545 38.06879817 -14.08167699 34.19646036 -14.11303711 30.32373047 C-14.11956137 27.84912421 -14.1248141 25.37451421 -14.12866211 22.89990234 C-14.14100891 21.74874435 -14.15335571 20.59758636 -14.16607666 19.4115448 C-14.14916943 13.31646171 -13.95259885 8.68359392 -10.80053711 3.38818359 C-7.40203444 0.04162856 -4.66675677 0.00913309 0 0 Z " fill="#F7451E" transform="translate(650.800537109375,332.61181640625)"/>
<path d="M0 0 C3.77195099 -0.04597137 7.53851634 -0.02967629 11.31005859 0.04052734 C12.88577859 0.06961229 14.46167116 0.09003568 16.03759766 0.10400391 C18.52518653 0.1322122 21.00948002 0.19579064 23.49609375 0.26953125 C24.24842285 0.2751709 25.00075195 0.28081055 25.77587891 0.28662109 C29.36942996 0.43624905 31.15723642 0.68578254 33.7559967 3.25146484 C35.83873176 6.52192393 36.05968852 8.23501749 36.06030273 12.078125 C36.06968369 13.262854 36.07906464 14.44758301 36.08872986 15.66821289 C36.07749588 16.93914795 36.0662619 18.21008301 36.0546875 19.51953125 C36.05614273 20.83236084 36.05759796 22.14519043 36.05909729 23.49780273 C36.06047902 26.27185197 36.04796238 29.04538275 36.02514648 31.81933594 C35.99676159 35.3669395 35.99950173 38.91368222 36.0122366 42.46134949 C36.0208821 45.85583284 36.0057409 49.25006239 35.9921875 52.64453125 C35.99512314 53.91546631 35.99805878 55.18640137 36.00108337 56.49584961 C35.9883992 57.68057861 35.97571503 58.86530762 35.96264648 60.0859375 C35.9572435 61.12564697 35.95184052 62.16535645 35.9462738 63.23657227 C35.45920425 66.81152131 34.12831658 69.51230842 31.55859375 72.08203125 C24.55735053 73.23128426 17.43878449 73.24190965 10.36328125 73.25 C9.33099396 73.2533284 8.29870667 73.2566568 7.23513794 73.26008606 C5.06870973 73.26511531 2.90227388 73.26749563 0.73583984 73.26733398 C-2.56425705 73.26952982 -5.86402414 73.28775383 -9.1640625 73.30664062 C-11.27994679 73.3095736 -13.39583264 73.31155904 -15.51171875 73.3125 C-16.48899933 73.31968552 -17.46627991 73.32687103 -18.47317505 73.33427429 C-32.24784786 73.28861231 -32.24784786 73.28861231 -36.13517761 69.37820435 C-37.79849005 66.45432628 -37.82834114 64.46501278 -37.84545898 61.10766602 C-37.85814316 59.90284073 -37.87082733 58.69801544 -37.88389587 57.4566803 C-37.88096024 56.15871017 -37.8780246 54.86074005 -37.875 53.5234375 C-37.87956318 52.17349485 -37.88486916 50.82355452 -37.8908844 49.47361755 C-37.89981107 46.64662225 -37.89739799 43.8199095 -37.88745117 40.99291992 C-37.87596531 37.37680367 -37.89616763 33.76166451 -37.92536831 30.14567661 C-37.94374901 27.35831037 -37.9434342 24.57117745 -37.93773079 21.78376579 C-37.93750358 19.80458803 -37.95438639 17.82543215 -37.97154236 15.84632874 C-37.96216141 14.63835129 -37.95278046 13.43037384 -37.94311523 12.18579102 C-37.94294907 11.12530045 -37.9427829 10.06480988 -37.94261169 8.97218323 C-37.31492985 5.35271754 -36.0045118 3.6701882 -33.44140625 1.08203125 C-30.71850586 0.42260742 -30.71850586 0.42260742 -27.59375 0.375 C-26.44052246 0.34583496 -25.28729492 0.31666992 -24.09912109 0.28662109 C-22.8714502 0.28098145 -21.6437793 0.2753418 -20.37890625 0.26953125 C-19.11771973 0.24584473 -17.8565332 0.2221582 -16.55712891 0.19775391 C-11.03829319 0.10419047 -5.51896868 0.08743546 0 0 Z " fill="#F7451E" transform="translate(778.44140625,267.91796875)"/>
<path d="M0 0 C0.87269531 -0.0038269 1.74539063 -0.00765381 2.64453125 -0.01159668 C4.48699092 -0.0143149 6.32948924 -0.00695994 8.171875 0.00976562 C10.99045934 0.03117752 13.80649485 0.00996199 16.625 -0.015625 C18.41667229 -0.01298171 20.20834299 -0.00785669 22 0 C22.84175781 -0.00809692 23.68351563 -0.01619385 24.55078125 -0.02453613 C28.14915309 0.03306874 30.39695956 0.17522487 33.53369141 2.02709961 C35.65252183 5.6456217 35.53400356 9.05566554 35.4609375 13.12890625 C35.45956284 14.37491859 35.45956284 14.37491859 35.4581604 15.64610291 C35.45212868 17.39864837 35.43639541 19.15118373 35.41162109 20.90356445 C35.37508116 23.58778799 35.37060205 26.27063168 35.37109375 28.95507812 C35.36126338 30.65886611 35.34960672 32.36264474 35.3359375 34.06640625 C35.33371185 34.86957779 35.33148621 35.67274933 35.32919312 36.5002594 C35.26346433 40.3516188 35.18461911 42.25432134 33 45.53125 C21.42022328 48.24009063 7.39167255 46.83574246 -4.4375 46.28125 C-5.95150391 46.21164062 -5.95150391 46.21164062 -7.49609375 46.140625 C-10 45.53125 -10 45.53125 -11.62939453 44.01464844 C-13.57685541 40.48604636 -13.44845643 37.11695872 -13.43359375 33.1875 C-13.4388356 32.38139282 -13.44407745 31.57528564 -13.44947815 30.74475098 C-13.45589028 29.04355011 -13.45457179 27.34230486 -13.44604492 25.64111328 C-13.43752828 23.03988726 -13.46631525 20.44085326 -13.49804688 17.83984375 C-13.49965889 16.18489649 -13.49908135 14.52994535 -13.49609375 12.875 C-13.50732773 12.09886353 -13.51856171 11.32272705 -13.53013611 10.52307129 C-13.48757807 7.22241294 -13.22181661 4.90710285 -11.53149414 2.04296875 C-7.74508241 -0.21814239 -4.33603705 -0.04170863 0 0 Z " fill="#F7461F" transform="translate(757,394.46875)"/>
<path d="M0 0 C2.86433411 -0.38095093 2.86433411 -0.38095093 6.57348633 -0.38818359 C7.24849686 -0.39344055 7.92350739 -0.39869751 8.61897278 -0.40411377 C10.85689245 -0.41734782 13.09410396 -0.40856135 15.33203125 -0.3984375 C16.88661333 -0.40045798 18.44119448 -0.40336921 19.99577332 -0.40713501 C23.25842284 -0.41156354 26.52082631 -0.40511318 29.78344727 -0.39111328 C33.95995454 -0.37406341 38.1358817 -0.38383215 42.31236744 -0.40183067 C45.52520588 -0.4126908 48.73790771 -0.40921126 51.95075035 -0.4014473 C53.49008948 -0.39944922 55.02944111 -0.40189077 56.56876564 -0.40888596 C58.72561897 -0.41653261 60.88154548 -0.40485075 63.03833008 -0.38818359 C64.26473709 -0.38579681 65.4911441 -0.38341003 66.75471497 -0.38095093 C70.39823082 0.04674671 72.1711794 0.67562714 75 3 C77.7574026 7.27466342 78.3776476 10.60752411 78.38818359 15.64453125 C78.39764008 16.94608154 78.40709656 18.24763184 78.4168396 19.58862305 C78.41146941 20.99658515 78.40531634 22.40454446 78.3984375 23.8125 C78.40046073 25.26928859 78.40337425 26.72607619 78.40713501 28.18286133 C78.41154667 31.22910245 78.40516498 34.27507883 78.39111328 37.32128906 C78.37402176 41.21510392 78.38386921 45.10829833 78.40183067 49.00209045 C78.41270006 52.00822579 78.4092078 55.01421537 78.4014473 58.02035522 C78.39945399 59.45559768 78.40187387 60.89085361 78.40888596 62.32608032 C78.41655162 64.33587369 78.40278557 66.34571381 78.38818359 68.35546875 C78.38579681 69.49653076 78.38341003 70.63759277 78.38095093 71.81323242 C77.94280533 75.47845043 76.97384279 77.88961073 75 81 C71.8125 81.875 71.8125 81.875 69 82 C70 80 70 80 73 79 C74.45503793 76.08992414 74.1353584 73.5375034 74.14526367 70.28710938 C74.14862228 69.5975264 74.1519809 68.90794342 74.15544128 68.19746399 C74.16495796 65.91287446 74.16689462 63.62835813 74.16796875 61.34375 C74.17118037 59.75956186 74.17454437 58.17537403 74.17805481 56.59118652 C74.18404754 53.26895459 74.18589452 49.94674868 74.18530273 46.62451172 C74.185201 42.36040259 74.1988644 38.09645955 74.21607494 33.83238983 C74.22717341 30.56051868 74.22922262 27.28868798 74.22869301 24.01679993 C74.22987595 22.44427415 74.23431523 20.87174743 74.24202538 19.29924011 C74.25178389 17.10367054 74.2489641 14.90846562 74.24291992 12.71289062 C74.24434494 11.46205688 74.24576996 10.21122314 74.24723816 8.92248535 C74.30591028 5.87592187 74.30591028 5.87592187 72 4 C68.52909526 2.74959489 65.10091853 2.87954597 61.44311523 2.88647461 C60.79386078 2.88632858 60.14460632 2.88618256 59.47567749 2.8860321 C57.33661519 2.88672686 55.19764079 2.89450096 53.05859375 2.90234375 C51.56934151 2.90421012 50.08008865 2.90563299 48.59083557 2.90663147 C44.67439065 2.91044466 40.75798296 2.92026138 36.84155273 2.93133545 C32.85596212 2.94155543 28.87036556 2.94613563 24.88476562 2.95117188 C17.88230514 2.96074067 10.87986975 2.97524234 3.87742615 2.99327087 C1.91828817 2.9978525 -0.04085667 3 -2 3 C-1.34 2.01 -0.68 1.02 0 0 Z " fill="#FB3814" transform="translate(644,333)"/>
<path d="M0 0 C0.33 0 0.66 0 1 0 C1.85393036 3.70742736 2.13376605 7.15074752 2.15771484 10.9519043 C2.16797699 12.12629562 2.17823914 13.30068695 2.18881226 14.51066589 C2.19611359 15.76913834 2.20341492 17.02761078 2.2109375 18.32421875 C2.23181328 20.30661041 2.25270621 22.28900207 2.27463722 24.27138233 C2.32777048 29.15294091 2.37216802 34.03449806 2.40136719 38.91625977 C2.41822272 41.6611002 2.44286187 44.40565552 2.47622681 47.15034485 C2.50733055 49.73550401 2.52664425 52.32083599 2.53329468 54.90617371 C2.54986115 56.07110855 2.56642761 57.2360434 2.58349609 58.4362793 C2.59158295 59.46488571 2.5996698 60.49349213 2.60800171 61.55326843 C2.73736115 62.36068985 2.86672058 63.16811127 3 64 C6.58368547 66.38912365 8.22995899 66.27088134 12.4909668 66.31884766 C13.47185776 66.33391609 13.47185776 66.33391609 14.4725647 66.34928894 C16.63144054 66.38015014 18.79019221 66.39716381 20.94921875 66.4140625 C22.4470985 66.43277183 23.94496768 66.45234507 25.44282532 66.4727478 C29.3833697 66.52410001 33.32394827 66.56370905 37.26464844 66.60089111 C41.28654457 66.64091149 45.30829813 66.69201278 49.33007812 66.7421875 C57.21995473 66.83898331 65.10990183 66.92337626 73 67 C73 67.66 73 68.32 73 69 C64.33338574 69.04634609 55.66681416 69.08188074 47.000103 69.10362434 C42.97577282 69.11406032 38.95152746 69.1282161 34.92724609 69.15087891 C31.04339006 69.17261396 27.15961559 69.18457003 23.27570343 69.18975449 C21.79413825 69.19344905 20.31257751 69.20066362 18.83104706 69.21146011 C16.75543073 69.225984 14.68015118 69.22797759 12.60449219 69.22705078 C11.42312683 69.231492 10.24176147 69.23593323 9.02459717 69.24050903 C6.05449201 69.00433308 4.43666614 68.66974126 2 67 C-3.74630689 58.38053967 -1.15207577 42.85641124 -1.13037109 32.73535156 C-1.12498702 29.74278761 -1.13035577 26.75037205 -1.13671875 23.7578125 C-1.1360583 21.83333301 -1.13477782 19.9088536 -1.1328125 17.984375 C-1.13483673 17.10086365 -1.13686096 16.21735229 -1.13894653 15.30706787 C-1.11950384 10.11617842 -0.74832689 5.13796633 0 0 Z " fill="#FA320F" transform="translate(638,347)"/>
<path d="M0 0 C3.28682892 0.58906804 5.00711138 1.60008791 7.42578125 3.87890625 C8.05379639 4.46599365 8.68181152 5.05308105 9.32885742 5.65795898 C9.98345947 6.28645752 10.63806152 6.91495605 11.3125 7.5625 C12.32824097 8.52748413 12.32824097 8.52748413 13.36450195 9.51196289 C17.85142401 13.81000762 22.0976144 18.16069803 26 23 C26.85335938 24.00417969 27.70671875 25.00835938 28.5859375 26.04296875 C41.27159431 41.17807884 51.80622873 58.04066705 60 76 C60.29422852 76.6300293 60.58845703 77.26005859 60.89160156 77.90917969 C64.64857246 85.97501602 67.92042475 94.19240068 70.9375 102.5625 C71.24437744 103.39555664 71.55125488 104.22861328 71.86743164 105.08691406 C73.5704095 109.94415429 74.33848741 113.85360979 74 119 C71.83400955 116.83400955 71.50078636 115.83729893 70.703125 112.95703125 C70.35362793 111.72907837 70.35362793 111.72907837 69.99707031 110.47631836 C69.62727051 109.15772827 69.62727051 109.15772827 69.25 107.8125 C64.82712302 92.67586345 58.77049922 79.02320882 51.20654297 65.20703125 C50.1360844 63.24892817 49.08369483 61.28238275 48.03515625 59.3125 C43.70199357 51.39737832 38.6898256 44.18232937 33.3034668 36.95092773 C32.76117432 36.22075439 32.21888184 35.49058105 31.66015625 34.73828125 C31.17168213 34.08899658 30.68320801 33.43971191 30.17993164 32.77075195 C29 31 29 31 28 28 C27.34 28 26.68 28 26 28 C24.51953125 26.53125 24.51953125 26.53125 22.8125 24.5 C22.19246094 23.77167969 21.57242187 23.04335938 20.93359375 22.29296875 C20.29550781 21.53628906 19.65742188 20.77960937 19 20 C13.48204879 13.59167875 7.8819998 7.63372265 1.35546875 2.234375 C0.90816406 1.82703125 0.46085937 1.4196875 0 1 C0 0.67 0 0.34 0 0 Z " fill="#FA3611" transform="translate(421,592)"/>
<path d="M0 0 C18.32326402 7.08886459 34.97397604 46.58097482 42.45507812 63.24023438 C56.46149304 95.90888225 56.46149304 95.90888225 56 108 C53.87040624 105.87040624 53.54483019 104.98495878 52.7734375 102.16796875 C52.55026855 101.37938477 52.32709961 100.59080078 52.09716797 99.77832031 C51.85885254 98.92334961 51.62053711 98.06837891 51.375 97.1875 C49.17601015 89.58341256 46.69862124 82.14529304 43.875 74.75 C43.55063965 73.8943042 43.2262793 73.0386084 42.89208984 72.15698242 C39.79063056 64.14841976 35.89395166 56.66844616 31.7421875 49.16015625 C30.49909546 46.90530992 29.27775035 44.64472425 28.0703125 42.37109375 C20.6071726 28.50398556 11.43029676 15.78938337 1.29296875 3.75 C0 2 0 2 0 0 Z " fill="#F93511" transform="translate(537,254)"/>
<path d="M0 0 C26.07 0 52.14 0 79 0 C78 23 78 23 76 31 C75.67 31 75.34 31 75 31 C74.839646 21.59256555 75.41040099 12.43358423 76 3 C50.59 2.67 25.18 2.34 -1 2 C-0.67 1.34 -0.34 0.68 0 0 Z " fill="#F82C08" transform="translate(635,437)"/>
<path d="M0 0 C0.66 0 1.32 0 2 0 C0.63413713 3.99143347 -1.15978427 6.59555971 -3.9375 9.75 C-13.87029523 21.6469975 -21.54190559 34.95157128 -28 49 C-28.28214355 49.60972656 -28.56428711 50.21945312 -28.85498047 50.84765625 C-32.60932581 59.04217313 -35.55144765 67.32924404 -38 76 C-38.66 76 -39.32 76 -40 76 C-39.53511101 68.76101424 -37.76165535 62.96810444 -34.9375 56.3125 C-34.32914307 54.85904175 -34.32914307 54.85904175 -33.70849609 53.3762207 C-30.36049929 45.53527227 -26.55506604 38.21433619 -22 31 C-21.57960449 30.32098633 -21.15920898 29.64197266 -20.72607422 28.94238281 C-15.53500394 20.57306807 -10.19005728 12.59272514 -3.77734375 5.1015625 C-1.86640801 2.92284932 -1.86640801 2.92284932 0 0 Z " fill="#FA3611" transform="translate(538,418)"/>
<path d="M0 0 C0.66 0 1.32 0 2 0 C4.00695291 3.45434314 6.00436779 6.9141063 8 10.375 C8.57234375 11.35984375 9.1446875 12.3446875 9.734375 13.359375 C10.54648437 14.77089844 10.54648437 14.77089844 11.375 16.2109375 C12.12910156 17.51490479 12.12910156 17.51490479 12.8984375 18.84521484 C14 21 14 21 14 23 C14.66 23.33 15.32 23.66 16 24 C17.03393555 25.92333984 17.03393555 25.92333984 18.13671875 28.4609375 C18.54599609 29.39873047 18.95527344 30.33652344 19.37695312 31.30273438 C19.80943359 32.31658203 20.24191406 33.33042969 20.6875 34.375 C21.13158203 35.40689453 21.57566406 36.43878906 22.03320312 37.50195312 C35.48385815 69.08090799 35.48385815 69.08090799 35 79 C34.01 78.505 34.01 78.505 33 78 C32.16802158 75.46186293 31.43756418 72.95245841 30.75 70.375 C28.40007113 61.97225095 25.35438929 54.04301747 22 46 C21.37316395 44.35486507 20.74796538 42.70910453 20.125 41.0625 C15.27462557 28.93656392 9.09087568 16.20282878 1.625 5.5 C0 3 0 3 0 0 Z " fill="#FA3410" transform="translate(448,433)"/>
<path d="M0 0 C0.99 0.33 1.98 0.66 3 1 C2.56768066 1.41137207 2.13536133 1.82274414 1.68994141 2.24658203 C-7.68234079 11.22555199 -15.87378437 20.15687334 -23 31 C-23.71671875 32.02867187 -24.4334375 33.05734375 -25.171875 34.1171875 C-29.21221609 39.9650496 -32.62670411 45.88718488 -35.67578125 52.30859375 C-36.98507494 54.96966559 -38.43997084 57.47924906 -40 60 C-41.14390908 56.56827275 -41.02562658 56.06123404 -39.515625 52.453125 C-38.77638188 51.04359423 -38.01994621 49.64299685 -37.25 48.25 C-36.84313965 47.50137695 -36.4362793 46.75275391 -36.01708984 45.98144531 C-28.73214555 32.85586653 -19.85988105 21.27282351 -10 10 C-9.11221323 8.93034812 -8.22676821 7.85874804 -7.34375 6.78515625 C-5.06389875 4.07593301 -2.9583816 1.94630369 0 0 Z " fill="#FA3510" transform="translate(558,428)"/>
<path d="M0 0 C0.66 0 1.32 0 2 0 C5.21827363 13.04791431 7.61647074 26.11527297 9.3125 39.4375 C9.48362305 40.73816406 9.65474609 42.03882813 9.83105469 43.37890625 C10.95554226 52.6366418 11.18694138 61.69524271 11 71 C8.67371818 68.67371818 8.71395727 68.13397849 8.5078125 64.9765625 C8.41318726 63.71271729 8.41318726 63.71271729 8.31665039 62.42333984 C8.25340576 61.4998877 8.19016113 60.57643555 8.125 59.625 C7.39544179 50.49518755 6.34587988 41.44349071 5.0625 32.375 C4.90475098 31.22725098 4.74700195 30.07950195 4.58447266 28.89697266 C3.63623561 22.32588964 2.35099154 15.97604436 0.60205078 9.56982422 C-0.1745692 6.25485995 -0.23071886 3.38387664 0 0 Z " fill="#F93510" transform="translate(483,513)"/>
<path d="M0 0 C0.66 0 1.32 0 2 0 C1.52921522 4.31031015 1.04890922 8.61675042 0.5 12.91796875 C-1.66623475 30.8521794 -1.65829457 48.95906438 -2 67 C-2.33 67 -2.66 67 -3 67 C-6.76388167 44.58474042 -4.4642569 22.17247595 0 0 Z " fill="#FA3814" transform="translate(261,339)"/>
<path d="M0 0 C3.90381822 3.90381822 3.56244183 5.66179036 4 11 C3.04222656 11.49886719 2.08445312 11.99773437 1.09765625 12.51171875 C-12.87675161 19.97608893 -25.36387295 29.26722628 -36.921875 40.09765625 C-39.19761764 42.18090186 -41.57372264 44.09545711 -44 46 C-44.66 45.67 -45.32 45.34 -46 45 C-43.20343896 41.27125194 -40.26866715 38.39860356 -36.625 35.5 C-35.70976563 34.7678125 -34.79453125 34.035625 -33.8515625 33.28125 C-32.91054688 32.5284375 -31.96953125 31.775625 -31 31 C-30.05511719 30.195625 -29.11023438 29.39125 -28.13671875 28.5625 C-24.64524663 25.64391801 -20.94225444 23.06619586 -17.1875 20.5 C-16.48625 20.01877686 -15.785 19.53755371 -15.0625 19.04174805 C-10.18259343 15.72514796 -5.24380408 12.7155414 0 10 C0 6.7 0 3.4 0 0 Z " fill="#FB3510" transform="translate(593,364)"/>
<path d="M0 0 C12.97622465 12.77311853 22.1201779 28.04560517 31.125 43.75 C31.49109375 44.38059326 31.8571875 45.01118652 32.234375 45.66088867 C34.51355146 49.72175914 35.88512912 53.51752946 37 58 C34.08018411 55.28439974 32.10986114 52.74721375 30.265625 49.21875 C29.77811768 48.30013184 29.29061035 47.38151367 28.78833008 46.43505859 C28.28068115 45.46648926 27.77303223 44.49791992 27.25 43.5 C19.97633471 29.90970163 11.75364056 17.10384349 1.734375 5.33984375 C0 3 0 3 0 0 Z " fill="#F93410" transform="translate(448,396)"/>
<path d="M0 0 C20.79 0 41.58 0 63 0 C62.67 0.66 62.34 1.32 62 2 C55.66217728 3.15959294 49.35647665 3.14595549 42.9296875 3.1328125 C41.88982697 3.13376923 40.84996643 3.13472595 39.77859497 3.13571167 C37.5918166 3.13638903 35.40503617 3.13456588 33.21826172 3.13037109 C29.87853477 3.12500568 26.53894162 3.1303368 23.19921875 3.13671875 C21.06770804 3.1360581 18.93619741 3.13477722 16.8046875 3.1328125 C15.81081024 3.13483673 14.81693298 3.13686096 13.79293823 3.13894653 C9.08159888 3.12305848 4.63300008 2.97992671 0 2 C0 1.34 0 0.68 0 0 Z " fill="#FB300D" transform="translate(746,338)"/>
<path d="M0 0 C0.495 1.485 0.495 1.485 1 3 C-20.45 2.67 -41.9 2.34 -64 2 C-63.67 1.34 -63.34 0.68 -63 0 C-41.90150743 -0.92881784 -21.07864579 -1.41027977 0 0 Z " fill="#F9320E" transform="translate(810,269)"/>
<path d="M0 0 C0.495 0.99 0.495 0.99 1 2 C2.12277344 1.98839844 3.24554688 1.97679687 4.40234375 1.96484375 C20.42672488 1.84679384 20.42672488 1.84679384 27 3 C27.66 3.66 28.32 4.32 29 5 C-2.68 4.505 -2.68 4.505 -35 4 C-35 3.67 -35 3.34 -35 3 C-31.37566012 2.65922686 -27.75044609 2.3287782 -24.125 2 C-23.11179687 1.90460937 -22.09859375 1.80921875 -21.0546875 1.7109375 C-3.69412364 0.15293818 -3.69412364 0.15293818 0 2 C0 1.34 0 0.68 0 0 Z " fill="#FB310E" transform="translate(280,536)"/>
<path d="M0 0 C4.14656535 3.60668573 4.90697091 8.3061548 6.375 13.4375 C6.67736572 14.48123779 6.97973145 15.52497559 7.29125977 16.6003418 C10.92769505 29.64748326 15 44.38147066 15 58 C14.34 58 13.68 58 13 58 C11.65256006 52.91620912 10.60622396 47.87931265 9.75683594 42.69091797 C8.01218456 32.12523251 5.45969748 21.99619379 2.28637695 11.76953125 C1.99077881 10.81175781 1.69518066 9.85398437 1.390625 8.8671875 C1.12282227 8.02269043 0.85501953 7.17819336 0.57910156 6.30810547 C0 4 0 4 0 0 Z " fill="#F93713" transform="translate(496,660)"/>
<path d="M0 0 C0.99 0.33 1.98 0.66 3 1 C3.04941382 6.35683849 3.08572607 11.7135445 3.10986328 17.07055664 C3.11992491 18.89317129 3.1335756 20.71576979 3.15087891 22.53833008 C3.17512021 25.15710435 3.18648138 27.77566531 3.1953125 30.39453125 C3.20563507 31.21025101 3.21595764 32.02597076 3.22659302 32.8664093 C3.2273686 36.77130756 3.21650661 38.67524008 1 42 C-1.50390625 42.51171875 -1.50390625 42.51171875 -4.5625 42.6875 C-6.17125 42.7803125 -6.17125 42.7803125 -7.8125 42.875 C-8.864375 42.91625 -9.91625 42.9575 -11 43 C-11.886875 43.04125 -12.77375 43.0825 -13.6875 43.125 C-17.66178285 43.22958639 -19.61958903 43.25360731 -23 41 C-16 40 -16 40 0 40 C0 26.8 0 13.6 0 0 Z " fill="#FA3210" transform="translate(789,398)"/>
<path d="M0 0 C1.20090523 0.00022659 1.20090523 0.00022659 2.42607117 0.00045776 C3.28553848 0.01078033 4.1450058 0.02110291 5.03051758 0.03173828 C5.91411453 0.03456818 6.79771149 0.03739807 7.70808411 0.04031372 C10.53054337 0.05150981 13.35268545 0.07661327 16.17504883 0.10205078 C18.0884557 0.11208132 20.00186755 0.12120704 21.9152832 0.12939453 C26.60616065 0.15144727 31.29680096 0.18597316 35.98754883 0.22705078 C35.98754883 0.88705078 35.98754883 1.54705078 35.98754883 2.22705078 C22.78754883 2.55705078 9.58754883 2.88705078 -4.01245117 3.22705078 C-5.51228202 6.22671248 -5.25147172 9.34652039 -5.32885742 12.64111328 C-5.34963852 13.37075287 -5.37041962 14.10039246 -5.39183044 14.85214233 C-5.45727034 17.18534841 -5.51618485 19.51866799 -5.57495117 21.85205078 C-5.6181417 23.43279174 -5.66175616 25.01352117 -5.70581055 26.59423828 C-5.81294598 30.47172582 -5.91422899 34.34932763 -6.01245117 38.22705078 C-6.34245117 38.22705078 -6.67245117 38.22705078 -7.01245117 38.22705078 C-7.08649327 33.13675134 -7.14100125 28.04676386 -7.17724609 22.95605469 C-7.19235208 21.22357729 -7.21283811 19.49113824 -7.23876953 17.75878906 C-7.27507438 15.271551 -7.29215883 12.78481752 -7.30541992 10.29736328 C-7.32090378 9.5202298 -7.33638763 8.74309631 -7.3523407 7.94241333 C-7.35302734 5.75878906 -7.35302734 5.75878906 -7.01245117 2.22705078 C-3.96794917 0.19738278 -3.40968789 -0.02151223 0 0 Z " fill="#FB300C" transform="translate(752.012451171875,394.77294921875)"/>
<path d="M0 0 C0.99 0.33 1.98 0.66 3 1 C2.69408936 1.46559326 2.38817871 1.93118652 2.07299805 2.41088867 C-7.72783208 17.41230824 -16.01606426 32.97668453 -24 49 C-25.07851894 45.78628999 -24.99222326 44.20844747 -23.55078125 41.15625 C-23.20297607 40.4139917 -22.8551709 39.6717334 -22.49682617 38.90698242 C-22.10599854 38.11267822 -21.7151709 37.31837402 -21.3125 36.5 C-20.91329346 35.67282471 -20.51408691 34.84564941 -20.1027832 33.9934082 C-14.27806861 22.18985084 -7.38331427 10.89082699 0 0 Z " fill="#FA3813" transform="translate(460,273)"/>
<path d="M0 0 C2.50652351 2.29888251 4.1557726 4.69766686 5.875 7.625 C6.58269531 8.81996094 6.58269531 8.81996094 7.3046875 10.0390625 C8.25216917 11.69388071 9.18880201 13.35547711 10.08325195 15.03955078 C13.08492633 20.64065699 16.52346178 25.62601785 20.4375 30.625 C20.98470703 31.3365625 21.53191406 32.048125 22.09570312 32.78125 C25.23638603 36.83997867 28.4777008 40.75919024 31.91821289 44.56787109 C33 46 33 46 33 48 C28.41620645 45.96269026 26.08729769 42.91020903 23 39.0625 C22.43547119 38.36318359 21.87094238 37.66386719 21.28930664 36.94335938 C0 9.9917194 0 9.9917194 0 0 Z " fill="#F93411" transform="translate(279,480)"/>
<path d="M0 0 C2.1997495 2.03897306 3.64010723 3.91225158 4.98046875 6.58984375 C5.33568604 7.28577637 5.69090332 7.98170898 6.05688477 8.69873047 C6.42998779 9.43752441 6.80309082 10.17631836 7.1875 10.9375 C12.70599914 21.60020988 19.30868661 31.23652646 26.53125 40.8203125 C28 43 28 43 28 45 C27.34 45 26.68 45 26 45 C24.27194741 42.95606683 22.69042651 40.91505055 21.125 38.75 C20.64611328 38.09265869 20.16722656 37.43531738 19.67382812 36.75805664 C0 9.21660611 0 9.21660611 0 0 Z " fill="#F93411" transform="translate(240,562)"/>
<path d="M0 0 C5.50255529 3.07889457 10.77326661 6.40525843 16.01367188 9.90820312 C18.94285618 11.82776737 21.49334185 13.48661829 25 14 C25 14.66 25 15.32 25 16 C26.25683594 16.38285156 26.25683594 16.38285156 27.5390625 16.7734375 C31.33207838 18.11768918 34.80224791 19.79014193 38.375 21.625 C39.01566406 21.94984375 39.65632813 22.2746875 40.31640625 22.609375 C41.87947501 23.40257407 43.44000622 24.20077031 45 25 C45 25.66 45 26.32 45 27 C37.8774849 24.86833818 31.67344707 21.9245833 25.1875 18.3125 C23.74262207 17.51392578 23.74262207 17.51392578 22.26855469 16.69921875 C2.1619438 5.4769243 2.1619438 5.4769243 0 0 Z " fill="#F93713" transform="translate(311,646)"/>
<path d="M0 0 C0.33 0 0.66 0 1 0 C1.01458252 1.21059082 1.02916504 2.42118164 1.04418945 3.66845703 C1.10231685 8.17509981 1.1795489 12.68125049 1.26245117 17.1875 C1.29563265 19.13500968 1.32368557 21.08261397 1.34643555 23.03027344 C1.38010634 25.83569515 1.43242827 28.64025528 1.48828125 31.4453125 C1.49467117 32.31116974 1.5010611 33.17702698 1.50764465 34.06912231 C1.62855089 39.08025676 2.15258664 42.69614868 5 47 C8.05039221 48.90206849 8.05039221 48.90206849 11 50 C11 50.33 11 50.66 11 51 C8.8125 51.3125 8.8125 51.3125 6 51 C1.8909405 47.75097621 0.28652374 45.01069041 -1 40 C-1.26340439 36.96909718 -1.25714726 33.95866423 -1.23046875 30.91796875 C-1.22978142 29.63579216 -1.22978142 29.63579216 -1.2290802 28.32771301 C-1.22607227 26.53169353 -1.21822998 24.73567632 -1.20581055 22.93969727 C-1.18744416 20.17910631 -1.18530181 17.41884908 -1.18554688 14.65820312 C-1.18063531 12.91145541 -1.17480857 11.16470998 -1.16796875 9.41796875 C-1.16685593 8.58887497 -1.1657431 7.75978119 -1.16459656 6.90556335 C-1.11608383 1.11608383 -1.11608383 1.11608383 0 0 Z " fill="#F92708" transform="translate(621,387)"/>
<path d="M0 0 C3.58273331 1.65356922 6.80973467 3.67980703 10 6 C10 6.66 10 7.32 10 8 C10.81210937 8.33644531 10.81210937 8.33644531 11.640625 8.6796875 C14.73779883 10.41287418 17.18045613 12.71061689 19.75 15.125 C20.5385437 15.85988647 20.5385437 15.85988647 21.34301758 16.60961914 C22.90076751 18.06743704 24.45077042 19.53313839 26 21 C26.83402344 21.77988281 27.66804688 22.55976562 28.52734375 23.36328125 C29.24019531 24.04777344 29.95304687 24.73226562 30.6875 25.4375 C31.31011719 26.03433594 31.93273437 26.63117187 32.57421875 27.24609375 C34.13694893 29.16846595 34.60071438 30.57766724 35 33 C30.94557786 29.69988896 27.20893635 26.22616894 23.56616211 22.48461914 C17.8594912 16.62567909 11.99356141 11.37379262 5.40600586 6.51489258 C1.09851497 3.29554491 1.09851497 3.29554491 0 0 Z " fill="#F93511" transform="translate(427,569)"/>
<path d="M0 0 C15.25584507 2.08197415 28.70966535 9.67974224 42 17 C38.70972327 18.07546985 38.16714719 18.07293696 34.77734375 16.59375 C33.49291631 15.90411205 32.21324315 15.20557335 30.9375 14.5 C21.02754459 9.26189732 10.61648224 5.53882741 0 2 C0 1.34 0 0.68 0 0 Z " fill="#FA3613" transform="translate(368,540)"/>
<path d="M0 0 C5.37076488 0.54546831 9.33179485 2.41002245 14 4.9375 C14.73532959 5.33211426 15.47065918 5.72672852 16.22827148 6.13330078 C21.35969593 8.95174491 26.27045943 12.01270146 31.0625 15.375 C31.96452148 15.99942993 31.96452148 15.99942993 32.88476562 16.63647461 C34.53515625 17.8359375 34.53515625 17.8359375 37 20 C37 20.99 37 21.98 37 23 C36.00484375 22.33355469 35.0096875 21.66710937 33.984375 20.98046875 C22.97762367 13.69284497 11.64495054 7.2100352 0 1 C0 0.67 0 0.34 0 0 Z " fill="#FB330F" transform="translate(354,350)"/>
<path d="M0 0 C4.54153953 0.88015761 7.30207881 3.51028923 10.6875 6.5 C11.30383301 7.03737793 11.92016602 7.57475586 12.55517578 8.12841797 C23.11056572 17.41087912 23.11056572 17.41087912 27 22 C27 22.66 27 23.32 27 24 C27.66 24 28.32 24 29 24 C30.6875 25.8125 30.6875 25.8125 32 28 C31.67 28.99 31.34 29.98 31 31 C30.34 29.68 29.68 28.36 29 27 C28.34 27 27.68 27 27 27 C25.51953125 25.49609375 25.51953125 25.49609375 23.8125 23.4375 C18.59297172 17.31210318 12.95894806 11.89482294 6.8671875 6.64453125 C4.46487962 4.52869105 2.22791166 2.2975339 0 0 Z " fill="#FB3510" transform="translate(396,376)"/>
<path d="M0 0 C5.06489513 1.41941165 8.89937631 3.63092004 13.1875 6.5625 C13.83662354 7.00215088 14.48574707 7.44180176 15.15454102 7.89477539 C27.32512266 16.24737002 27.32512266 16.24737002 32 21 C32 21.99 32 22.98 32 24 C31.030625 23.24976563 30.06125 22.49953125 29.0625 21.7265625 C21.24392952 15.73874884 13.36671091 10.13141806 4.87890625 5.12353516 C3.22220912 4.13143358 1.60606396 3.07213313 0 2 C0 1.34 0 0.68 0 0 Z " fill="#F93510" transform="translate(387,567)"/>
<path d="M0 0 C3.98673157 3.78450605 7.275504 7.80445291 10.5 12.25 C10.98122314 12.9102417 11.46244629 13.5704834 11.95825195 14.25073242 C21 26.81204583 21 26.81204583 21 31 C20.34 31 19.68 31 19 31 C17.39640243 28.61127621 15.90372934 26.22144501 14.4375 23.75 C10.52229235 17.2816155 6.32856113 11.2650637 1.6171875 5.35546875 C0 3 0 3 0 0 Z " fill="#F83612" transform="translate(463,602)"/>
<path d="M0 0 C12.04162446 3.06142995 21.77831909 10.88411814 30 20 C29.34 20.66 28.68 21.32 28 22 C27.26910156 21.18208984 27.26910156 21.18208984 26.5234375 20.34765625 C19.31967793 12.68547562 11.11097415 7.54567216 2.078125 2.3046875 C1.39234375 1.87414062 0.7065625 1.44359375 0 1 C0 0.67 0 0.34 0 0 Z " fill="#F93914" transform="translate(457,699)"/>
<path d="M0 0 C3.3 0 6.6 0 10 0 C9.88539824 3.66725635 9.75865387 7.33342893 9.625 11 C9.5940625 12.02996094 9.563125 13.05992187 9.53125 14.12109375 C9.30511914 20.03818471 8.68017551 25.31745519 7 31 C6.67 31 6.34 31 6 31 C5.83168463 21.29381339 6.35782702 11.67846426 7 2 C4.69 1.67 2.38 1.34 0 1 C0 0.67 0 0.34 0 0 Z " fill="#F93412" transform="translate(704,437)"/>
<path d="M0 0 C8.76271149 3.82992653 16.74636174 12.90589555 23 20 C23.33 20.99 23.66 21.98 24 23 C21.04585138 21.67300061 19.00725218 20.2392283 16.7578125 17.91796875 C16.16613281 17.31533203 15.57445312 16.71269531 14.96484375 16.09179688 C14.35769531 15.46337891 13.75054687 14.83496094 13.125 14.1875 C8.04720328 8.95755621 8.04720328 8.95755621 2.5546875 4.17578125 C1.71164062 3.45777344 0.86859375 2.73976563 0 2 C0 1.34 0 0.68 0 0 Z " fill="#F9340F" transform="translate(422,371)"/>
<path d="M0 0 C6.17181344 0.51781655 11.1899022 1.9613269 16.875 4.375 C17.63296875 4.67921875 18.3909375 4.9834375 19.171875 5.296875 C24.74486864 7.61730296 24.74486864 7.61730296 27 11 C22.62308567 10.31243875 18.699172 8.802119 14.625 7.125 C13.99078125 6.86847656 13.3565625 6.61195313 12.703125 6.34765625 C8.44542681 4.61850943 4.21926444 2.82071618 0 1 C0 0.67 0 0.34 0 0 Z " fill="#FB3712" transform="translate(325,338)"/>
<path d="M0 0 C0.99 0.33 1.98 0.66 3 1 C2.18208984 1.78310547 2.18208984 1.78310547 1.34765625 2.58203125 C-3.86971645 7.67454375 -8.5534854 12.97944108 -13.0546875 18.71484375 C-15 21 -15 21 -18 23 C-17.41091581 19.89718046 -16.52310618 18.09525579 -14.453125 15.72265625 C-13.9375 15.12646484 -13.421875 14.53027344 -12.890625 13.91601562 C-12.34921875 13.30435547 -11.8078125 12.69269531 -11.25 12.0625 C-10.7240625 11.45470703 -10.198125 10.84691406 -9.65625 10.22070312 C-6.56367919 6.67266706 -3.36817019 3.28708461 0 0 Z " fill="#FA3813" transform="translate(492,235)"/>
<path d="M0 0 C5.38803389 0.54893762 9.40795259 2.46520706 14.125 4.9375 C14.82753906 5.29779297 15.53007812 5.65808594 16.25390625 6.02929688 C17.59314513 6.71663781 18.93081755 7.40704294 20.26660156 8.10107422 C22.16806071 9.08715487 24.0802376 10.05006575 26 11 C26 11.66 26 12.32 26 13 C21.13457978 12.3823197 17.28679943 10.29685579 13 8.0625 C6.62001105 4.77101703 6.62001105 4.77101703 0 2 C0 1.34 0 0.68 0 0 Z " fill="#FA3512" transform="translate(360,554)"/>
<path d="M0 0 C6.71828758 -0.38555452 12.89822428 1.06407595 19.4375 2.5 C21.1071582 2.85771484 21.1071582 2.85771484 22.81054688 3.22265625 C25.54180031 3.80876214 28.27146868 4.40137252 31 5 C31 5.33 31 5.66 31 6 C23.89583925 6.25784694 17.38527162 5.58387684 10.4375 4.125 C9.53708984 3.95097656 8.63667969 3.77695312 7.70898438 3.59765625 C2.80026778 2.59738947 2.80026778 2.59738947 1 2 C0.67 1.34 0.34 0.68 0 0 Z " fill="#FA3612" transform="translate(401,687)"/>
<path d="M0 0 C-9.30037251 3.68505326 -17.90889654 6.49628378 -28 6 C-24.59214138 2.59214138 -19.72846523 2.3390669 -15.125 1.3125 C-14.11824219 1.07466797 -13.11148438 0.83683594 -12.07421875 0.59179688 C-11.10355469 0.37201172 -10.13289062 0.15222656 -9.1328125 -0.07421875 C-8.24480957 -0.27619873 -7.35680664 -0.47817871 -6.44189453 -0.6862793 C-3.95383652 -1.00593082 -2.36084624 -0.78431719 0 0 Z " fill="#FA3510" transform="translate(553,676)"/>
<path d="M0 0 C0.66 0.33 1.32 0.66 2 1 C1.35575667 4.25031727 0.70932737 7.50019606 0.0625 10.75 C-0.11990234 11.67039062 -0.30230469 12.59078125 -0.49023438 13.5390625 C-0.66748047 14.42851563 -0.84472656 15.31796875 -1.02734375 16.234375 C-1.18968506 17.05131836 -1.35202637 17.86826172 -1.51928711 18.70996094 C-1.96269203 20.82227083 -2.46079981 22.910337 -3 25 C-3.66 25 -4.32 25 -5 25 C-4.49638177 19.25875219 -3.61765007 13.65284662 -2.5 8 C-2.36940186 7.3289624 -2.23880371 6.6579248 -2.10424805 5.96655273 C-1.12376909 1.12376909 -1.12376909 1.12376909 0 0 Z " fill="#FA3712" transform="translate(521,682)"/>
<path d="M0 0 C3.71920179 3.34511966 4.94107821 7.28836408 6.6875 11.875 C7.00783203 12.67808594 7.32816406 13.48117187 7.65820312 14.30859375 C9.20234911 18.30559424 10.46802495 21.6376542 10 26 C7.43435673 24.71717836 7.11526567 23.60228656 6 21 C5.86851562 20.42894531 5.73703125 19.85789062 5.6015625 19.26953125 C4.49011018 15.07632477 2.68434584 11.10977215 1.05859375 7.09375 C0 4 0 4 0 0 Z " fill="#F93410" transform="translate(486,457)"/>
<path d="M0 0 C4.30112984 0.45541375 6.59817549 3.21796691 9.4375 6.1875 C10.16501465 6.93580078 10.16501465 6.93580078 10.90722656 7.69921875 C12.28180369 9.12292102 13.6413576 10.56108331 15 12 C15.61488281 12.64582031 16.22976563 13.29164063 16.86328125 13.95703125 C18.25 15.5 18.25 15.5 20 18 C19.67 18.99 19.34 19.98 19 21 C16.3924778 18.25316507 13.78958261 15.50198763 11.1875 12.75 C10.44951172 11.97269531 9.71152344 11.19539062 8.95117188 10.39453125 C8.23896484 9.64042969 7.52675781 8.88632813 6.79296875 8.109375 C6.1383667 7.41811523 5.48376465 6.72685547 4.80932617 6.01464844 C3.07678243 4.0854957 1.52050752 2.09867073 0 0 Z " fill="#FA3612" transform="translate(516,232)"/>
<path d="M0 0 C1.9438572 2.9157858 2.36213517 4.12652959 2.8515625 7.45703125 C2.98046875 8.32263672 3.109375 9.18824219 3.2421875 10.08007812 C3.36851562 10.98177734 3.49484375 11.88347656 3.625 12.8125 C3.7590625 13.70259766 3.893125 14.59269531 4.03125 15.50976562 C4.69013599 20.04464932 5.16713538 24.40377704 5 29 C4.34 28.67 3.68 28.34 3 28 C0.29948875 18.73402562 -0.43814452 9.62295183 0 0 Z " fill="#F93310" transform="translate(259,409)"/>
<path d="M0 0 C4.28427364 1.54074806 6.45149377 4.78548858 9.0625 8.3125 C9.7131543 9.16618164 9.7131543 9.16618164 10.37695312 10.03710938 C17.13552632 18.9971052 17.13552632 18.9971052 16.6875 22.3125 C16.460625 22.869375 16.23375 23.42625 16 24 C15.5875 23.32195312 15.175 22.64390625 14.75 21.9453125 C11.05002052 15.98239913 7.11884024 10.46564785 2.6015625 5.09375 C1 3 1 3 0 0 Z " fill="#F93410" transform="translate(430,409)"/>
<path d="M0 0 C-1 3 -1 3 -2.65478516 4.05908203 C-3.35909668 4.37216309 -4.0634082 4.68524414 -4.7890625 5.0078125 C-5.56636719 5.35457031 -6.34367188 5.70132813 -7.14453125 6.05859375 C-7.96308594 6.41050781 -8.78164063 6.76242187 -9.625 7.125 C-10.81802734 7.66447266 -10.81802734 7.66447266 -12.03515625 8.21484375 C-16.73745715 10.27644365 -20.88199689 11.5472008 -26 12 C-23.2270271 9.79233274 -20.53478765 8.18959353 -17.3046875 6.73828125 C-16.42425781 6.34189453 -15.54382813 5.94550781 -14.63671875 5.53710938 C-13.72535156 5.13298828 -12.81398438 4.72886719 -11.875 4.3125 C-10.95589844 3.89677734 -10.03679688 3.48105469 -9.08984375 3.05273438 C-2.26254618 0 -2.26254618 0 0 0 Z " fill="#FA3612" transform="translate(588,660)"/>
<path d="M0 0 C0.66 0.33 1.32 0.66 2 1 C-1.38715981 4.79431201 -5.21228468 7.10799982 -9.5625 9.625 C-14.84260745 12.7126881 -14.84260745 12.7126881 -20 16 C-20.99 16 -21.98 16 -23 16 C-23 15.34 -23 14.68 -23 14 C-21.92621094 13.40832031 -20.85242188 12.81664062 -19.74609375 12.20703125 C-18.30977298 11.40907527 -16.87358198 10.61088566 -15.4375 9.8125 C-14.73302734 9.42513672 -14.02855469 9.03777344 -13.30273438 8.63867188 C-8.62864973 6.03238504 -4.30285604 3.18332188 0 0 Z " fill="#F93612" transform="translate(613,644)"/>
<path d="M0 0 C0.66 0 1.32 0 2 0 C3.67937581 3.41056216 5.34124073 6.8293694 7 10.25 C7.71542969 11.70212891 7.71542969 11.70212891 8.4453125 13.18359375 C8.89648438 14.11816406 9.34765625 15.05273438 9.8125 16.015625 C10.44091797 17.30388184 10.44091797 17.30388184 11.08203125 18.61816406 C12 21 12 21 12 25 C11.34 25 10.68 25 10 25 C9.52949219 23.83082031 9.05898438 22.66164063 8.57421875 21.45703125 C7.94552928 19.90876613 7.31661094 18.36059392 6.6875 16.8125 C6.37876953 16.04357422 6.07003906 15.27464844 5.75195312 14.48242188 C4.41659646 11.20728394 3.10327045 8.17087414 1.26953125 5.13671875 C0 3 0 3 0 0 Z " fill="#FA3411" transform="translate(484,634)"/>
<path d="M0 0 C6.33333333 6.33333333 12.66666667 12.66666667 19 19 C18.01 19.33 17.02 19.66 16 20 C13.89270058 17.91975578 11.78911127 15.83597761 9.6875 13.75 C9.09259766 13.16347656 8.49769531 12.57695313 7.88476562 11.97265625 C1.77599395 5.8980118 1.77599395 5.8980118 0 3 C0 2.01 0 1.02 0 0 Z " fill="#F93612" transform="translate(269,607)"/>
<path d="M0 0 C0.33 0 0.66 0 1 0 C1.8632601 3.71888866 2.11721556 7.14296488 2.09765625 10.95703125 C2.09443359 12.06884766 2.09121094 13.18066406 2.08789062 14.32617188 C2.07951172 15.47666016 2.07113281 16.62714844 2.0625 17.8125 C2.05798828 18.98232422 2.05347656 20.15214844 2.04882812 21.35742188 C2.0370693 24.23833358 2.02063426 27.11914044 2 30 C0.46244832 27.23619195 -0.27454 25.10702616 -0.44921875 21.953125 C-0.49240234 21.19 -0.53558594 20.426875 -0.58007812 19.640625 C-0.61552734 18.85171875 -0.65097656 18.0628125 -0.6875 17.25 C-0.73455078 16.4765625 -0.78160156 15.703125 -0.83007812 14.90625 C-1.09149951 9.79781902 -0.76780211 5.05710262 0 0 Z " fill="#F92B0C" transform="translate(638,347)"/>
<path d="M0 0 C0.99 0.33 1.98 0.66 3 1 C2.40574219 1.4125 1.81148437 1.825 1.19921875 2.25 C0.37035156 2.8275 -0.45851563 3.405 -1.3125 4 C-2.66988281 4.94552734 -2.66988281 4.94552734 -4.0546875 5.91015625 C-7.97887385 8.69455903 -11.81842206 11.58893299 -15.65234375 14.49609375 C-18 16 -18 16 -21 16 C-17.25180842 12.03048663 -13.28298905 8.87046675 -8.8125 5.75 C-8.18408203 5.30398438 -7.55566406 4.85796875 -6.90820312 4.3984375 C-2.32142857 1.16071429 -2.32142857 1.16071429 0 0 Z " fill="#FB320D" transform="translate(592,402)"/>
<path d="M0 0 C6.27 0.66 12.54 1.32 19 2 C19 2.66 19 3.32 19 4 C13.06 3.67 7.12 3.34 1 3 C0.67 4.98 0.34 6.96 0 9 C-0.33 9 -0.66 9 -1 9 C-0.67 6.03 -0.34 3.06 0 0 Z " fill="#F93512" transform="translate(265,325)"/>
<path d="M0 0 C7.82490023 -0.62599202 14.60937233 1.67485871 22 4 C21.67 4.66 21.34 5.32 21 6 C19.741875 5.71125 18.48375 5.4225 17.1875 5.125 C12.54846156 4.0777131 7.88588238 3.29335948 3.1875 2.5625 C2.465625 2.376875 1.74375 2.19125 1 2 C0.67 1.34 0.34 0.68 0 0 Z " fill="#FA3812" transform="translate(433,693)"/>
<path d="M0 0 C0.33 0 0.66 0 1 0 C1.2137731 7.68395543 1.01670288 14.56340812 -1 22 C-1.66 21.67 -2.32 21.34 -3 21 C-2.69073032 18.24960167 -2.3777116 15.49971822 -2.0625 12.75 C-1.97548828 11.97269531 -1.88847656 11.19539063 -1.79882812 10.39453125 C-1.71181641 9.64042969 -1.62480469 8.88632812 -1.53515625 8.109375 C-1.456604 7.41811523 -1.37805176 6.72685547 -1.29711914 6.01464844 C-0.99455017 3.96304687 -0.53587616 2.00217465 0 0 Z " fill="#FA2F0C" transform="translate(709,470)"/>
<path d="M0 0 C0.33 0 0.66 0 1 0 C1.27908468 5.42121998 0.42721053 9.37857235 -1.5 14.4375 C-1.73847656 15.07365234 -1.97695313 15.70980469 -2.22265625 16.36523438 C-2.80490924 17.91402732 -3.40101069 19.45760253 -4 21 C-4.66 21 -5.32 21 -6 21 C-4.55613874 13.78069368 -2.42211826 6.94889267 0 0 Z " fill="#F9330F" transform="translate(696,529)"/>
<path d="M0 0 C6.55925943 0.38979206 11.94526627 1.42113193 18 4 C18 4.33 18 4.66 18 5 C11.58518742 5.42765417 6.11404596 3.85743168 0 2 C0 1.34 0 0.68 0 0 Z " fill="#F93713" transform="translate(349,535)"/>
<path d="M0 0 C6.94485303 -0.48452463 13.2990368 1.30712509 20 3 C20 3.33 20 3.66 20 4 C12.78528371 4.35482211 6.87581298 3.1591338 0 1 C0 0.67 0 0.34 0 0 Z " fill="#FA3310" transform="translate(328,531)"/>
<path d="M0 0 C0.66 0.33 1.32 0.66 2 1 C1.51917969 1.52078125 1.03835938 2.0415625 0.54296875 2.578125 C-1.45173865 5.70905813 -1.50318411 8.06368221 -1.6875 11.75 C-1.75324219 12.92046875 -1.81898438 14.0909375 -1.88671875 15.296875 C-1.92410156 16.18890625 -1.96148438 17.0809375 -2 18 C-3.50390625 16.8046875 -3.50390625 16.8046875 -5 15 C-5.45872412 10.07914128 -4.6492207 5.98366773 -1.9375 1.875 C-1.298125 1.25625 -0.65875 0.6375 0 0 Z " fill="#FA3A17" transform="translate(642,334)"/>
<path d="M0 0 C0.66 0 1.32 0 2 0 C1.39644592 3.85025879 0.23227397 6.86101159 -1.5625 10.3125 C-2.01753906 11.19550781 -2.47257813 12.07851563 -2.94140625 12.98828125 C-3.29074219 13.65214844 -3.64007812 14.31601562 -4 15 C-4.66 15 -5.32 15 -6 15 C-4.40109514 9.80355921 -2.25861997 4.93387858 0 0 Z " fill="#F93613" transform="translate(688,551)"/>
<path d="M0 0 C0.33 0 0.66 0 1 0 C0.85834107 2.39614575 0.71181159 4.79182897 0.5625 7.1875 C0.52318359 7.86103516 0.48386719 8.53457031 0.44335938 9.22851562 C0.21072435 12.89699102 -0.17207011 16.41694206 -1 20 C-1.33 20 -1.66 20 -2 20 C-2.0544452 17.79194476 -2.09299283 15.58349446 -2.125 13.375 C-2.14820313 12.14523437 -2.17140625 10.91546875 -2.1953125 9.6484375 C-2.0030428 6.05683959 -1.30258556 3.33338825 0 0 Z " fill="#FA320E" transform="translate(500,541)"/>
<path d="M0 0 C0.66 0 1.32 0 2 0 C2.8680908 1.91040052 3.71901783 3.82860737 4.5625 5.75 C5.03816406 6.81734375 5.51382813 7.8846875 6.00390625 8.984375 C6.9946154 11.98369837 7.16161779 13.13421241 6 16 C0 4.26213592 0 4.26213592 0 0 Z " fill="#F83714" transform="translate(232,544)"/>
<path d="M0 0 C0.66 0 1.32 0 2 0 C1.6083965 5.95507399 0.62875405 10.62819824 -2 16 C-2.33 16 -2.66 16 -3 16 C-3.37851209 10.06997733 -2.10575375 5.52760359 0 0 Z " fill="#FB3612" transform="translate(428,336)"/>
<path d="M0 0 C3.82990706 0.64743667 6.5283898 2.45311237 9.75 4.5625 C11.22726562 5.52349609 11.22726562 5.52349609 12.734375 6.50390625 C13.85585938 7.24447266 13.85585938 7.24447266 15 8 C13.359375 8.70703125 13.359375 8.70703125 11 9 C8.203125 7.63671875 8.203125 7.63671875 5.25 5.6875 C4.26515625 5.05199219 3.2803125 4.41648437 2.265625 3.76171875 C1.51796875 3.18035156 0.7703125 2.59898437 0 2 C0 1.34 0 0.68 0 0 Z " fill="#F93814" transform="translate(411,559)"/>
<path d="M0 0 C0.33 0.99 0.66 1.98 1 3 C-1.97 6.3 -4.94 9.6 -8 13 C-8.99 12.67 -9.98 12.34 -11 12 C-7.83741823 8.11454239 -4.59805717 4.49811114 -1 1 C-0.67 0.67 -0.34 0.34 0 0 Z " fill="#F9320E" transform="translate(653,608)"/>
<path d="M0 0 C1 3 1 3 -0.36328125 5.91796875 C-1.32814453 7.53638672 -1.32814453 7.53638672 -2.3125 9.1875 C-3.26576172 10.81751953 -3.26576172 10.81751953 -4.23828125 12.48046875 C-5.11033203 13.72763672 -5.11033203 13.72763672 -6 15 C-6.66 15 -7.32 15 -8 15 C-6.25565047 10.08410586 -3.74513488 3.74513488 0 0 Z " fill="#F9330F" transform="translate(681,567)"/>
<path d="M0 0 C1.7290774 -0.02725341 3.45828176 -0.04650987 5.1875 -0.0625 C6.15042969 -0.07410156 7.11335938 -0.08570313 8.10546875 -0.09765625 C10.85576513 -0.00486622 13.32479591 0.37888315 16 1 C16 1.99 16 2.98 16 4 C10.72 3.01 5.44 2.02 0 1 C0 0.67 0 0.34 0 0 Z " fill="#FA3610" transform="translate(309,541)"/>
<path d="M0 0 C5.44693314 -0.09688221 10.63904667 -0.12862175 16 1 C16 1.66 16 2.32 16 3 C10.21101581 3.20674944 5.57067277 2.59162079 0 1 C0 0.67 0 0.34 0 0 Z " fill="#FB330F" transform="translate(285,329)"/>
<path d="M0 0 C1.73017508 0.45451184 3.45909877 0.91378857 5.1875 1.375 C6.15042969 1.63023437 7.11335938 1.88546875 8.10546875 2.1484375 C10.82210207 2.94766296 13.39137175 3.9031362 16 5 C16 5.33 16 5.66 16 6 C10.38542449 5.6381718 5.88511386 5.05319616 1 2 C0.67 1.34 0.34 0.68 0 0 Z " fill="#F93511" transform="translate(367,676)"/>
<path d="M0 0 C0.66 0 1.32 0 2 0 C0.40956621 5.08938811 -2.7446951 8.87456643 -6 13 C-6.99 12.67 -7.98 12.34 -9 12 C-7.54927753 9.99406276 -6.09008971 7.99539826 -4.625 6 C-4.2125 5.42765625 -3.8 4.8553125 -3.375 4.265625 C-2.29828281 2.80684688 -1.15333422 1.39899024 0 0 Z " fill="#F9330F" transform="translate(666,591)"/>
<path d="M0 0 C1.31534494 3.65857532 0.65468309 6.08026481 -0.4375 9.75 C-0.86869141 11.22726562 -0.86869141 11.22726562 -1.30859375 12.734375 C-1.53675781 13.48203125 -1.76492188 14.2296875 -2 15 C-2.33 15 -2.66 15 -3 15 C-3.35050464 9.158256 -3.16727335 5.1468192 0 0 Z " fill="#FB3510" transform="translate(424,353)"/>
<path d="M0 0 C0.66 0 1.32 0 2 0 C1.74476126 1.62752231 1.47025506 3.25203196 1.1875 4.875 C1.03667969 5.77992188 0.88585937 6.68484375 0.73046875 7.6171875 C0 10 0 10 -3 12 C-2.49202991 7.6822542 -1.80317221 3.96697886 0 0 Z " fill="#FB3712" transform="translate(433,323)"/>
<path d="M0 0 C0.66 0 1.32 0 2 0 C2.83848804 1.45537568 3.67063934 2.91440373 4.5 4.375 C5.19609375 5.59316406 5.19609375 5.59316406 5.90625 6.8359375 C7 9 7 9 7 11 C6.34 11 5.68 11 5 11 C3.7109375 9.35546875 3.7109375 9.35546875 2.375 7.1875 C1.92898438 6.47980469 1.48296875 5.77210938 1.0234375 5.04296875 C0 3 0 3 0 0 Z " fill="#F83813" transform="translate(487,721)"/>
<path d="M0 0 C0.66 0.99 1.32 1.98 2 3 C4.56675597 5.69838448 6.89548863 7.93032576 10 10 C7.8125 10.3125 7.8125 10.3125 5 10 C1.95424358 7.43879574 0.26493447 5.79480342 -1 2 C-0.67 1.34 -0.34 0.68 0 0 Z " fill="#FA310D" transform="translate(622,428)"/>
<path d="M0 0 C1.79275866 3.11910856 2.34290718 5.67682428 2.625 9.25 C2.69976562 10.14203125 2.77453125 11.0340625 2.8515625 11.953125 C2.92503906 12.96632813 2.92503906 12.96632813 3 14 C2.34 14 1.68 14 1 14 C-0.38226016 11.23547967 -0.09525387 8.9538637 -0.0625 5.875 C-0.05347656 4.77929688 -0.04445313 3.68359375 -0.03515625 2.5546875 C-0.02355469 1.71164062 -0.01195312 0.86859375 0 0 Z " fill="#F7320E" transform="translate(508,704)"/>
<path d="M0 0 C0.33 0 0.66 0 1 0 C1.0272415 1.41655793 1.04650467 2.83327045 1.0625 4.25 C1.07410156 5.03890625 1.08570313 5.8278125 1.09765625 6.640625 C1.00385306 8.90691002 0.63241063 10.8288895 0 13 C-0.66 13 -1.32 13 -2 13 C-1.85851011 11.3954444 -1.71164314 9.79136233 -1.5625 8.1875 C-1.48128906 7.29417969 -1.40007813 6.40085937 -1.31640625 5.48046875 C-1 3 -1 3 0 0 Z " fill="#FA3310" transform="translate(705,496)"/>
<path d="M0 0 C8.57142857 0.85714286 8.57142857 0.85714286 12 3 C12 3.66 12 4.32 12 5 C10.18504338 4.55149342 8.37306866 4.09090429 6.5625 3.625 C5.55316406 3.36976563 4.54382813 3.11453125 3.50390625 2.8515625 C1 2 1 2 0 0 Z " fill="#FA320E" transform="translate(342,548)"/>
<path d="M0 0 C0.99 0.33 1.98 0.66 3 1 C0.69 3.97 -1.62 6.94 -4 10 C-5 6 -5 6 -4.00390625 4.296875 C-2.66927083 2.86458333 -1.33463542 1.43229167 0 0 Z " fill="#FA3511" transform="translate(469,261)"/>
<path d="M0 0 C0.66 0.33 1.32 0.66 2 1 C0.35 4.3 -1.3 7.6 -3 11 C-4 7 -4 7 -3.22265625 5.078125 C-1.61132812 2.5390625 -1.61132812 2.5390625 0 0 Z " fill="#FB320C" transform="translate(439,311)"/>
<path d="M0 0 C3.317124 4.422832 3.30466674 5.71910976 3 11 C2.34 11 1.68 11 1 11 C0.67 7.37 0.34 3.74 0 0 Z " fill="#F83611" transform="translate(495,714)"/>
<path d="M0 0 C-1.51671964 4.55015893 -5.16891053 6.50057264 -9 9 C-7.45665977 5.21180126 -4.44676575 0 0 0 Z " fill="#FB310C" transform="translate(636,627)"/>
<path d="M0 0 C3.3 0.33 6.6 0.66 10 1 C10 1.66 10 2.32 10 3 C8.5199159 2.88637738 7.04089926 2.75877092 5.5625 2.625 C4.73878906 2.55539062 3.91507812 2.48578125 3.06640625 2.4140625 C2.38449219 2.27742187 1.70257813 2.14078125 1 2 C0.67 1.34 0.34 0.68 0 0 Z " fill="#FB3310" transform="translate(331,545)"/>
<path d="M0 0 C3.81684226 1.55500981 6.19195732 4.03595495 9 7 C5.13066838 6.42676569 2.84777943 4.61046448 0 2 C0 1.34 0 0.68 0 0 Z " fill="#F83410" transform="translate(289,629)"/>
<path d="M0 0 C0.66 0 1.32 0 2 0 C1.01 3.3 0.02 6.6 -1 10 C-1.33 10 -1.66 10 -2 10 C-1.85950482 8.52031676 -1.71245174 7.04125484 -1.5625 5.5625 C-1.48128906 4.73878906 -1.40007812 3.91507812 -1.31640625 3.06640625 C-1 1 -1 1 0 0 Z " fill="#FB320E" transform="translate(509,505)"/>
<path d="M0 0 C2.6855594 2.6855594 3.06049974 5.37621328 4 9 C3.01 9 2.02 9 1 9 C0.67 6.03 0.34 3.06 0 0 Z " fill="#FA3411" transform="translate(267,449)"/>
<path d="M0 0 C3.96 1.98 3.96 1.98 8 4 C7.01 4.66 6.02 5.32 5 6 C2.5 4.6875 2.5 4.6875 0 3 C0 2.01 0 1.02 0 0 Z " fill="#FB3C17" transform="translate(369,356)"/>
<path d="M0 0 C0.99 0.495 0.99 0.495 2 1 C2.59355614 3.64860427 2.74209269 6.29197322 3 9 C2.34 9 1.68 9 1 9 C0.67 6.03 0.34 3.06 0 0 Z " fill="#FA330F" transform="translate(264,439)"/>
<path d="M0 0 C3.36591866 1.44253657 5.51047079 3.33264727 8 6 C4.65750371 5.40312566 2.53563658 4.26396123 0 2 C0 1.34 0 0.68 0 0 Z " fill="#F93310" transform="translate(300,638)"/>
<path d="" fill="#E35E3C" transform="translate(0,0)"/>
<path d="M0 0 C3 1 3 1 3 1 Z " fill="#F35630" transform="translate(384,685)"/>
<path d="" fill="#DD6241" transform="translate(0,0)"/>
<path d="" fill="#F7522B" transform="translate(0,0)"/>
<path d="M0 0 C2 1 2 1 2 1 Z " fill="#EE542F" transform="translate(347,671)"/>
<path d="" fill="#F8532C" transform="translate(0,0)"/>
<path d="" fill="#F4552F" transform="translate(0,0)"/>
<path d="" fill="#F15931" transform="translate(0,0)"/>
<path d="" fill="#645D5B" transform="translate(0,0)"/>
<path d="" fill="#EA5C37" transform="translate(0,0)"/>
<path d="" fill="#E95C39" transform="translate(0,0)"/>
<path d="" fill="#EB5C37" transform="translate(0,0)"/>
<path d="" fill="#EA5935" transform="translate(0,0)"/>
<path d="" fill="#ED5C36" transform="translate(0,0)"/>
<path d="" fill="#F0582F" transform="translate(0,0)"/>
<path d="" fill="#F0562F" transform="translate(0,0)"/>
<path d="" fill="#F05630" transform="translate(0,0)"/>
<path d="" fill="#F2552F" transform="translate(0,0)"/>
<path d="" fill="#F55832" transform="translate(0,0)"/>
<path d="" fill="#F8522D" transform="translate(0,0)"/>
<path d="" fill="#EE5731" transform="translate(0,0)"/>
<path d="" fill="#F65832" transform="translate(0,0)"/>
<path d="" fill="#ED5833" transform="translate(0,0)"/>
<path d="" fill="#F15B32" transform="translate(0,0)"/>
<path d="" fill="#F25632" transform="translate(0,0)"/>
<path d="" fill="#F9532C" transform="translate(0,0)"/>
<path d="" fill="#F5502C" transform="translate(0,0)"/>
<path d="" fill="#F7502B" transform="translate(0,0)"/>
<path d="" fill="#F8532C" transform="translate(0,0)"/>
<path d="" fill="#F55832" transform="translate(0,0)"/>
<path d="" fill="#F8512C" transform="translate(0,0)"/>
<path d="" fill="#F7522D" transform="translate(0,0)"/>
<path d="" fill="#F7522B" transform="translate(0,0)"/>
<path d="" fill="#F8522A" transform="translate(0,0)"/>
<path d="" fill="#F8502A" transform="translate(0,0)"/>
<path d="" fill="#F25731" transform="translate(0,0)"/>
<path d="" fill="#F8512C" transform="translate(0,0)"/>
<path d="" fill="#F7542A" transform="translate(0,0)"/>
<path d="" fill="#EF5931" transform="translate(0,0)"/>
<path d="" fill="#F25733" transform="translate(0,0)"/>
<path d="" fill="#EF5633" transform="translate(0,0)"/>
<path d="" fill="#F8512A" transform="translate(0,0)"/>
<path d="" fill="#EC5A37" transform="translate(0,0)"/>
<path d="" fill="#F7522C" transform="translate(0,0)"/>
<path d="" fill="#ED5833" transform="translate(0,0)"/>
<path d="" fill="#F45129" transform="translate(0,0)"/>
<path d="" fill="#E85833" transform="translate(0,0)"/>
<path d="" fill="#EE5A34" transform="translate(0,0)"/>
<path d="" fill="#F8512C" transform="translate(0,0)"/>
<path d="" fill="#F15733" transform="translate(0,0)"/>
<path d="" fill="#F8502A" transform="translate(0,0)"/>
<path d="" fill="#F6532D" transform="translate(0,0)"/>
<path d="" fill="#EF5C36" transform="translate(0,0)"/>
<path d="" fill="#F9502C" transform="translate(0,0)"/>
<path d="" fill="#F7522B" transform="translate(0,0)"/>
<path d="" fill="#F7522E" transform="translate(0,0)"/>
<path d="" fill="#EC5530" transform="translate(0,0)"/>
<path d="" fill="#F7542F" transform="translate(0,0)"/>
<path d="" fill="#F7542E" transform="translate(0,0)"/>
<path d="" fill="#F45631" transform="translate(0,0)"/>
<path d="" fill="#F1552F" transform="translate(0,0)"/>
<path d="" fill="#F85830" transform="translate(0,0)"/>
<path d="" fill="#F05930" transform="translate(0,0)"/>
<path d="" fill="#F75229" transform="translate(0,0)"/>
<path d="" fill="#F25831" transform="translate(0,0)"/>
<path d="" fill="#F15731" transform="translate(0,0)"/>
<path d="" fill="#F7522B" transform="translate(0,0)"/>
<path d="" fill="#FA542D" transform="translate(0,0)"/>
<path d="" fill="#F05534" transform="translate(0,0)"/>
<path d="" fill="#F45932" transform="translate(0,0)"/>
<path d="" fill="#FA522B" transform="translate(0,0)"/>
<path d="" fill="#F25732" transform="translate(0,0)"/>
<path d="" fill="#F9542C" transform="translate(0,0)"/>
<path d="" fill="#F7522A" transform="translate(0,0)"/>
<path d="" fill="#F5522D" transform="translate(0,0)"/>
<path d="" fill="#EB5A36" transform="translate(0,0)"/>
<path d="" fill="#F3532A" transform="translate(0,0)"/>
<path d="" fill="#F9512C" transform="translate(0,0)"/>
<path d="" fill="#FA512B" transform="translate(0,0)"/>
<path d="" fill="#F05733" transform="translate(0,0)"/>
<path d="" fill="#F15932" transform="translate(0,0)"/>
<path d="" fill="#F85027" transform="translate(0,0)"/>
<path d="" fill="#EF5831" transform="translate(0,0)"/>
<path d="" fill="#F2532D" transform="translate(0,0)"/>
<path d="" fill="#F8532C" transform="translate(0,0)"/>
<path d="" fill="#F94E29" transform="translate(0,0)"/>
<path d="" fill="#F4552B" transform="translate(0,0)"/>
<path d="" fill="#F8552D" transform="translate(0,0)"/>
<path d="" fill="#F9532A" transform="translate(0,0)"/>
<path d="" fill="#F15934" transform="translate(0,0)"/>
<path d="" fill="#F7562B" transform="translate(0,0)"/>
<path d="" fill="#F9522C" transform="translate(0,0)"/>
<path d="" fill="#F6572E" transform="translate(0,0)"/>
<path d="" fill="#F6522A" transform="translate(0,0)"/>
<path d="" fill="#F7512A" transform="translate(0,0)"/>
<path d="" fill="#F4552D" transform="translate(0,0)"/>
<path d="" fill="#F3572D" transform="translate(0,0)"/>
<path d="" fill="#F35931" transform="translate(0,0)"/>
<path d="" fill="#F45B33" transform="translate(0,0)"/>
<path d="" fill="#F45930" transform="translate(0,0)"/>
<path d="" fill="#F35A30" transform="translate(0,0)"/>
<path d="" fill="#F7542D" transform="translate(0,0)"/>
<path d="" fill="#F6542C" transform="translate(0,0)"/>
<path d="" fill="#F95630" transform="translate(0,0)"/>
<path d="" fill="#EE5A33" transform="translate(0,0)"/>
<path d="" fill="#F8542C" transform="translate(0,0)"/>
<path d="" fill="#F25932" transform="translate(0,0)"/>
<path d="" fill="#F65933" transform="translate(0,0)"/>
<path d="" fill="#F35832" transform="translate(0,0)"/>
<path d="" fill="#F15931" transform="translate(0,0)"/>
<path d="" fill="#E95A36" transform="translate(0,0)"/>
<path d="" fill="#F55A32" transform="translate(0,0)"/>
<path d="" fill="#F3542D" transform="translate(0,0)"/>
<path d="" fill="#EF5E38" transform="translate(0,0)"/>
<path d="" fill="#F85B33" transform="translate(0,0)"/>
<path d="" fill="#F15631" transform="translate(0,0)"/>
<path d="" fill="#F1562F" transform="translate(0,0)"/>
<path d="" fill="#F05B34" transform="translate(0,0)"/>
<path d="" fill="#F05732" transform="translate(0,0)"/>
<path d="" fill="#E76240" transform="translate(0,0)"/>
</svg>
